<?xml version="1.0" standalone="no"?>
<!DOCTYPE svg PUBLIC "-//W3C//DTD SVG 20010904//EN"
 "http://www.w3.org/TR/2001/REC-SVG-20010904/DTD/svg10.dtd">
<svg version="1.0" xmlns="http://www.w3.org/2000/svg"
 width="512.000000pt" height="512.000000pt" viewBox="0 0 512.000000 512.000000"
 preserveAspectRatio="xMidYMid meet">
<metadata>
Created by potrace 1.14, written by Peter Selinger 2001-2017
</metadata>
<g transform="translate(0.000000,512.000000) scale(0.100000,-0.100000)"
fill="#000000" stroke="none">
<path d="M2577 4684 c-1 -1 -40 -5 -87 -8 -86 -6 -96 -7 -210 -27 -264 -46
-534 -154 -775 -309 -55 -35 -102 -67 -105 -70 -3 -3 -25 -21 -50 -40 -126
-97 -277 -251 -379 -385 -17 -22 -36 -46 -42 -53 -21 -25 -128 -199 -146 -238
-10 -22 -20 -41 -23 -44 -24 -24 -118 -272 -155 -410 -27 -98 -29 -108 -39
-175 -3 -22 -8 -51 -11 -64 -29 -147 -24 -504 9 -676 3 -16 8 -43 12 -60 3
-16 10 -48 15 -70 5 -22 11 -47 13 -56 9 -36 55 -177 76 -229 50 -128 188
-389 212 -398 4 -2 8 -8 8 -14 0 -19 150 -204 237 -293 73 -75 173 -165 218
-197 5 -4 24 -18 40 -32 105 -83 350 -219 494 -273 136 -51 305 -100 371 -108
32 -3 98 -14 130 -20 78 -16 330 -21 460 -10 53 5 208 28 270 40 92 19 204 53
325 99 85 33 275 125 293 143 7 7 18 13 23 13 5 0 15 4 22 10 7 5 44 31 82 56
172 115 369 302 496 469 61 80 138 198 171 260 14 28 37 70 50 95 23 43 65
146 107 260 23 62 77 282 86 350 3 25 9 70 13 100 9 70 8 396 -1 475 -6 51
-26 167 -41 240 -2 11 -9 32 -14 46 -6 15 -8 29 -6 32 3 3 1 13 -5 24 -5 10
-19 50 -31 88 -25 81 -99 255 -142 335 -32 57 -176 281 -187 290 -3 3 -26 30
-51 60 -52 65 -213 227 -286 288 -28 23 -86 67 -130 97 -43 30 -84 58 -90 62
-44 33 -222 124 -319 163 -44 17 -89 36 -100 40 -23 10 -112 38 -141 45 -10 3
-46 12 -79 20 -33 9 -73 18 -90 20 -16 3 -41 7 -55 10 -31 6 -87 13 -165 21
-57 5 -274 12 -278 8z"/>
</g>
</svg>
